<?xml version="1.0" encoding="utf-8"?>
<!-- Generator: Adobe Illustrator 24.0.3, SVG Export Plug-In . SVG Version: 6.00 Build 0)  -->
<svg version="1.1" id="Isolation_Mode" xmlns="http://www.w3.org/2000/svg" xmlns:xlink="http://www.w3.org/1999/xlink" x="0px"
	 y="0px" viewBox="0 0 4975 4209.9" style="enable-background:new 0 0 4975 4209.9;" xml:space="preserve">
<style type="text/css">
	.st0{fill:#FDC300;}
	.st1{fill:#E30613;}
	.st2{fill:#F39200;}
	.st3{fill:#FFD000;}
	.st4{font-family:'Pacifico-Regular';}
	.st5{font-size:766.5137px;}
</style>
<g>
	<g>
		<path class="st0" d="M1729.3,1195.4h3021.2c107.7,0,195-87.3,195-195c0-107.7-87.3-195-195-195H1729.3c-107.7,0-195,87.3-195,195
			C1534.3,1108.1,1621.6,1195.4,1729.3,1195.4z"/>
	</g>
	<g>
		<path class="st1" d="M2343,2366.5h1978.7c107.7,0,195-87.3,195-195c0-107.7-87.3-195-195-195H2343c-107.7,0-195,87.3-195,195
			C2148,2279.2,2235.3,2366.5,2343,2366.5z"/>
	</g>
	<g>
		<path class="st2" d="M2060.8,1764.4h2481.9c107.7,0,195-87.3,195-195s-87.3-195-195-195H2060.8c-107.7,0-195,87.3-195,195
			S1953.1,1764.4,2060.8,1764.4z"/>
	</g>
	<g>
		<path class="st3" d="M1696.4,1192.7l2820.2,567.5c106.2,18.2,206.9-53.2,225.1-159.3c18.2-106.2-53.2-206.9-159.3-225.1
			L1762.2,808.3c-106.2-18.2-206.9,53.2-225.1,159.3C1518.9,1073.7,1590.3,1174.5,1696.4,1192.7z"/>
	</g>
	<g>
		<path class="st2" d="M2028.9,1761.6l2271,600.7c106.2,18.2,206.9-53.2,225.1-159.3c18.2-106.2-53.2-206.9-159.3-225.1l-2271-600.7
			c-106.2-18.2-206.9,53.2-225.1,159.3C1851.4,1642.7,1922.7,1743.4,2028.9,1761.6z"/>
	</g>
	<g>
		<path d="M195.4,390h1241.6c107.7,0,195-87.3,195-195s-87.3-195-195-195H195.4C87.7,0,0.4,87.3,0.4,195S87.7,390,195.4,390z"/>
	</g>
	<g>
		<path d="M1307.5,323.4l233,272.2c70.9,81.1,194.1,89.3,275.2,18.4c81.1-70.9,89.3-194.1,18.4-275.2L1601,66.6
			c-70.9-81.1-194.1-89.3-275.2-18.4C1244.8,119.2,1236.6,242.4,1307.5,323.4z"/>
	</g>
	<g>
		<circle cx="2807" cy="2782.1" r="312.1"/>
	</g>
	<g>
		<circle cx="3891.1" cy="2782.1" r="312.1"/>
	</g>
</g>
<text transform="matrix(1 0 0 1 11.5556 3845.4434)"><tspan x="0" y="0" class="st3 st4 st5">Net</tspan><tspan x="1280.1" y="0" class="st2 st4 st5">Berry</tspan><tspan x="3279.8" y="0" class="st1 st4 st5">Shop</tspan></text>
</svg>
